<svg xmlns="http://www.w3.org/2000/svg" width="44" height="32" viewBox="0 0 44 32">
<path d="M20.5,28.2 l-16,-16 c-0.2,-0.2,-0.4,-0.6,-0.2,-1 c0.2,-0.4,0.4,-0.6,0.8,-0.6 c6.2,0 11.8,-3.4,14.6,-9 l0.6,-1.2 c0.2,-0.2,0.4,-0.4,0.6,-0.6 c0.2,0 0.6,0 0.8,0.2 l10.6,10.6 c0.2,0.2,0.4,0.6,0.2,0.8 c0,0.2,-0.2,0.6,-0.6,0.6 l-1.2,0.6 c-5.6,2.8,-9,8.4,-9,14.6 c0,0.4,-0.2,0.8,-0.6,0.8 c-0.4,0.2,-0.8,0 -1,-0.2z
M9.3,19.4 l-6,6 c-0.2,0.2,-0.2,0.2,-0.2,0.4 l-1.4,4 c-0.2,0.4,0 0.8,0.2,1 s0.6,0.4,1 0.2 l4,-1.4 c0.2,0 0.2,-0.2,0.4,-0.2 l6,-6z
M19,31 a1,1,0,1,0,2,-2 l-6,-6 a1,1,0,1,0,-2,2z
m9,1 l15,-15 a1,1,0,1,0,-2,-2 l-13,13 l-5,-5 a1,1,0,1,0,-2,2z
m7,-15 a1,1,0,1,0,-2,-2 l-6,6 a1,1,0,1,0,2,2z" fill-rule="evenodd"/>
</svg>