<svg xmlns="http://www.w3.org/2000/svg" width="44" height="32" viewBox="0 0 44 32">
  <g>
    <path
      d="M 14 24 l 6 6 m 2 -6 l 6 6 l 14 -14 m -8 0 l -6 6"
      stroke-width="3" stroke="black" fill="none" stroke-linecap="round"/>
    <path d="M 19.8 28.2 l -16 -16 c -0.2 -0.2 -0.4 -0.6 -0.2 -1 c 0.2 -0.4 0.4 -0.6 0.8 -0.6 c 6.2 0 11.8 -3.4 14.6 -9 l 0.6 -1.2 c 0.2 -0.2 0.4 -0.4 0.6 -0.6 c 0.2 0 0.6 0 0.8 0.2 l 10.6 10.6 c 0.2 0.2 0.4 0.6 0.2 0.8 c 0 0.2 -0.2 0.6 -0.6 0.6 l -1.2 0.6 c -5.6 2.8 -9 8.4 -9 14.6 c 0 0.4 -0.2 0.8 -0.6 0.8 c -0.4 0.2 -0.8 0 -1 -0.2 z"/>
    <path d="M 8.6 19.4 l -7 7 c -0.2 0.2 -0.2 0.2 -0.2 0.4 l -1.4 4 c -0.2 0.4 0 0.8 0.2 1 s 0.6 0.4 1 0.2 l 4 -1.4 c 0.2 0 0.2 -0.2 0.4 -0.2 l 7 -7 z"/>
  </g>
</svg>
