<svg xmlns="http://www.w3.org/2000/svg" width="22" height="16" viewBox="0 0 22 16">
  <g>
    <path
      d="M7,12l3,3 m1,-3l3,3l7,-7m-4,0l-3,3"
      stroke-width="1.5" stroke="black" fill="none" stroke-linecap="round"/>
    <path d="M 9.9 14.1 l -8 -8 c -0.1 -0.1 -0.2 -0.3 -0.1 -0.5 c 0.1 -0.2 0.2 -0.3 0.4 -0.3 c 3.1 0 5.9 -1.7 7.3 -4.5 l 0.3 -0.6 c 0.1 -0.1 0.2 -0.2 0.3 -0.3 c 0.1 -0 0.3 0 0.4 0.1 l 5.3 5.3 c 0.1 0.1 0.2 0.3 0.1 0.4 c -0 0.1 -0.1 0.3 -0.3 0.3 l -0.6 0.3 c -2.8 1.4 -4.5 4.2 -4.5 7.3 c 0 0.2 -0.1 0.4 -0.3 0.4 c -0.2 0.1 -0.4 0 -0.5 -0.1 z"/>
    <path d="M 4.3 9.7 l -3.5 3.5 c -0.1 0.1 -0.1 0.1 -0.1 0.2 l -0.7 2 c -0.1 0.2 -0 0.4 0.1 0.5 s 0.3 0.2 0.5 0.1 l 2 -0.7 c 0.1 -0 0.1 -0.1 0.2 -0.1 l 3.5 -3.5 z"/>
  </g>
</svg>
