<?xml version="1.0"?>
<svg xmlns="http://www.w3.org/2000/svg" xmlns:xlink="http://www.w3.org/1999/xlink" viewBox="0 0 512 512">
<g>
	<g>
		<path d="M0.506,129.518V512h510.988V129.518H0.506z M496.316,496.822H15.684V144.696h480.632V496.822z"/>
	</g>
</g>
<g>
	<g>
		<rect x="29.344" y="206.419" width="452.3" height="15.178"/>
	</g>
</g>
<g>
	<g>
		<rect x="263.589" y="167.968" width="15.178" height="15.178"/>
	</g>
</g>
<g>
	<g>
		<rect x="324.3" y="167.968" width="15.178" height="15.178"/>
	</g>
</g>
<g>
	<g>
		<rect x="111.81" y="167.968" width="15.178" height="15.178"/>
	</g>
</g>
<g>
	<g>
		<rect x="385.012" y="167.968" width="15.178" height="15.178"/>
	</g>
</g>
<g>
	<g>
		<rect x="354.656" y="167.968" width="15.178" height="15.178"/>
	</g>
</g>
<g>
	<g>
		<rect x="293.945" y="167.968" width="15.178" height="15.178"/>
	</g>
</g>
<g>
	<g>
		<rect x="172.522" y="167.968" width="15.178" height="15.178"/>
	</g>
</g>
<g>
	<g>
		<rect x="142.166" y="167.968" width="15.178" height="15.178"/>
	</g>
</g>
<g>
	<g>
		<rect x="202.877" y="167.968" width="15.178" height="15.178"/>
	</g>
</g>
<g>
	<g>
		<rect x="233.233" y="167.968" width="15.178" height="15.178"/>
	</g>
</g>
<g>
	<g>
		<polygon points="76.395,0 76.395,35.921 91.573,35.921 91.573,15.178 420.427,15.178 420.427,35.921 435.605,35.921 435.605,0 		
			"/>
	</g>
</g>
<g>
	<g>
		<polygon points="35.921,48.569 35.921,116.87 51.099,116.87 51.099,63.747 460.901,63.747 460.901,116.87 476.079,116.87 
			476.079,48.569 		"/>
	</g>
</g>
</svg>
