<svg height="512" viewBox="0 0 512 512" width="512" xmlns="http://www.w3.org/2000/svg">
    <g>
        <path d="m316.685 449.874-254.559-254.559c-4.288-4.288-5.583-10.741-3.252-16.345 2.32-5.614 7.789-9.26 13.859-9.26 99.064 0 188.039-55.022 232.227-143.583l8.918-17.826c2.144-4.319 6.256-7.333 11.011-8.11 4.765-.766 9.602.798 13.01 4.205l169.706 169.706c3.408 3.408 4.972 8.245 4.205 13.01-.777 4.754-3.791 8.866-8.11 11.011l-17.816 8.908c-88.573 44.197-143.594 133.172-143.594 232.236 0 6.07-3.646 11.539-9.26 13.859-5.604 2.331-12.057 1.036-16.345-3.252z"/>
        <path d="m136.372 311.988-110.765 110.766c-1.647 1.647-2.89 3.656-3.625 5.863l-21.213 63.64c-1.792 5.397-.394 11.332 3.625 15.351s9.954 5.417 15.351 3.625l63.64-21.213c2.206-.735 4.216-1.978 5.863-3.625l110.766-110.766z"/>
    </g>
</svg>