<?xml version="1.0" encoding="iso-8859-1"?>
<!-- Generator: Adobe Illustrator 19.0.0, SVG Export Plug-In . SVG Version: 6.00 Build 0)  -->
<svg version="1.1" id="Layer_1" xmlns="http://www.w3.org/2000/svg" xmlns:xlink="http://www.w3.org/1999/xlink" x="0px" y="0px"
	 viewBox="0 0 460.002 460.002" style="enable-background:new 0 0 460.002 460.002;" xml:space="preserve">
<g>
	<g>
		<g>
			<path d="M427.138,0H32.865C14.743,0,0.001,14.743,0.001,32.865v394.272c0,18.122,14.743,32.865,32.865,32.865h394.271
				c18.122,0,32.865-14.743,32.865-32.865V32.865C460.003,14.743,445.26,0,427.138,0z M30.001,32.865
				c0-1.58,1.285-2.865,2.865-2.865h394.271c1.58,0,2.865,1.285,2.865,2.865v82.863H30.001V32.865z M430.003,427.137
				c0,1.58-1.285,2.865-2.865,2.865H32.865c-1.58,0-2.865-1.285-2.865-2.865v-281.41h400.002V427.137z"/>
			<circle cx="76.85" cy="72.364" r="26.249"/>
			<path d="M169.326,302.865h47.109v47.109c0,8.284,6.716,15,15,15s15-6.716,15-15v-47.109h47.109c8.284,0,15-6.716,15-15
				s-6.716-15-15-15h-47.109v-47.109c0-8.284-6.716-15-15-15s-15,6.716-15,15v47.109h-47.109c-8.284,0-15,6.716-15,15
				S161.042,302.865,169.326,302.865z"/>
		</g>
	</g>
</g>
</svg>
